<svg width="151" height="54" viewBox="0 0 151 54" fill="none" xmlns="http://www.w3.org/2000/svg">
<path d="M76.641 24.4583C76.0276 24.4583 75.5743 24.245 75.281 23.8183C74.9876 23.3916 74.841 22.885 74.841 22.2983C74.841 21.7116 74.9876 21.205 75.281 20.7783C75.5743 20.3516 76.0276 20.1383 76.641 20.1383H82.841V17.6983C82.841 16.9516 83.0943 16.405 83.601 16.0583C84.1343 15.7116 84.7343 15.5383 85.401 15.5383C86.0676 15.5383 86.6543 15.7116 87.161 16.0583C87.6943 16.405 87.961 16.9516 87.961 17.6983V20.1383H93.761C94.3743 20.1383 94.8276 20.3516 95.121 20.7783C95.4143 21.205 95.561 21.7116 95.561 22.2983C95.561 22.885 95.4143 23.3916 95.121 23.8183C94.8276 24.245 94.3743 24.4583 93.761 24.4583H87.961V25.3783C87.961 26.3916 88.1343 27.2316 88.481 27.8983C88.8543 28.565 89.4276 29.1783 90.201 29.7383C91.1343 30.405 91.9876 30.9916 92.761 31.4983C93.5343 32.005 94.161 32.405 94.641 32.6983C95.201 33.045 95.521 33.525 95.601 34.1383C95.681 34.725 95.561 35.2716 95.241 35.7783C94.9476 36.205 94.5076 36.5383 93.921 36.7783C93.361 36.9916 92.761 36.8983 92.121 36.4983C91.5876 36.1516 90.9876 35.765 90.321 35.3383C89.6543 34.9116 89.001 34.4716 88.361 34.0183C87.3476 33.325 86.641 32.765 86.241 32.3383C85.841 31.9116 85.5876 31.525 85.481 31.1783H85.441C85.3343 31.6316 85.0543 32.0983 84.601 32.5783C84.1743 33.0316 83.4543 33.605 82.441 34.2983C81.641 34.8316 80.881 35.3383 80.161 35.8183C79.441 36.2983 78.6676 36.7916 77.841 37.2983C77.5476 37.485 77.2543 37.5916 76.961 37.6183C76.6676 37.6183 76.3876 37.565 76.121 37.4583C75.8543 37.3516 75.6143 37.205 75.401 37.0183C75.1876 36.8316 75.0143 36.6316 74.881 36.4183C74.5876 35.9116 74.4543 35.365 74.481 34.7783C74.5076 34.165 74.8276 33.6716 75.441 33.2983C76.2943 32.765 77.1343 32.2316 77.961 31.6983C78.7876 31.165 79.6676 30.565 80.601 29.8983C81.3743 29.3383 81.9343 28.725 82.281 28.0583C82.6543 27.3916 82.841 26.5516 82.841 25.5383V24.4583H76.641ZM106.961 24.5383C107.601 24.5383 108.068 24.7516 108.361 25.1783C108.654 25.605 108.801 26.125 108.801 26.7383C108.801 27.3516 108.654 27.885 108.361 28.3383C108.068 28.765 107.601 28.9783 106.961 28.9783H103.201V35.6583C103.201 36.405 102.934 36.9516 102.401 37.2983C101.894 37.645 101.308 37.8183 100.641 37.8183C99.9743 37.8183 99.3743 37.645 98.841 37.2983C98.3343 36.9516 98.081 36.405 98.081 35.6583V18.0983C98.081 17.3516 98.3343 16.805 98.841 16.4583C99.3743 16.1116 99.9743 15.9383 100.641 15.9383C101.308 15.9383 101.894 16.1116 102.401 16.4583C102.934 16.805 103.201 17.3516 103.201 18.0983V24.5383H106.961ZM82.921 53.0183C81.641 53.0183 80.7476 52.7783 80.241 52.2983C79.761 51.8183 79.521 50.9516 79.521 49.6983V42.6183C79.521 41.365 79.761 40.4983 80.241 40.0183C80.7476 39.5383 81.641 39.2983 82.921 39.2983H99.801C101.081 39.2983 101.961 39.5383 102.441 40.0183C102.948 40.4983 103.201 41.365 103.201 42.6183V49.6983C103.201 50.9516 102.948 51.8183 102.441 52.2983C101.961 52.7783 101.081 53.0183 99.801 53.0183H82.921ZM97.201 48.8183C97.8143 48.8183 98.121 48.5116 98.121 47.8983V44.4183C98.121 43.805 97.8143 43.4983 97.201 43.4983H85.521C84.9076 43.4983 84.601 43.805 84.601 44.4183V47.8983C84.601 48.5116 84.9076 48.8183 85.521 48.8183H97.201ZM110.647 37.3383C111.741 36.0583 112.594 35.005 113.207 34.1783C113.847 33.3516 114.314 32.5916 114.607 31.8983C114.927 31.1783 115.127 30.4316 115.207 29.6583C115.287 28.885 115.327 27.9116 115.327 26.7383V24.2183C115.327 23.605 115.021 23.2983 114.407 23.2983H112.927C112.314 23.2983 111.861 23.085 111.567 22.6583C111.274 22.2316 111.127 21.725 111.127 21.1383C111.127 20.525 111.274 20.005 111.567 19.5783C111.861 19.1516 112.314 18.9383 112.927 18.9383H116.567C117.234 18.9383 117.781 18.9916 118.207 19.0983C118.661 19.1783 119.021 19.3516 119.287 19.6183C119.554 19.8583 119.727 20.1916 119.807 20.6183C119.914 21.045 119.967 21.5916 119.967 22.2583V26.9383C119.967 28.405 119.901 29.645 119.767 30.6583C119.661 31.6716 119.407 32.6583 119.007 33.6183C118.607 34.5516 118.021 35.5383 117.247 36.5783C116.501 37.6183 115.487 38.8983 114.207 40.4183C113.754 40.9516 113.221 41.1783 112.607 41.0983C111.994 41.0183 111.461 40.7783 111.007 40.3783C110.554 39.9783 110.261 39.5116 110.127 38.9783C110.021 38.4183 110.194 37.8716 110.647 37.3383ZM118.527 40.5383C119.727 38.9916 120.674 37.6983 121.367 36.6583C122.061 35.5916 122.594 34.605 122.967 33.6983C123.341 32.7916 123.581 31.885 123.687 30.9783C123.794 30.0716 123.847 28.9783 123.847 27.6983V24.2183C123.847 23.605 123.541 23.2983 122.927 23.2983H122.487C121.874 23.2983 121.421 23.085 121.127 22.6583C120.834 22.2316 120.687 21.725 120.687 21.1383C120.687 20.525 120.834 20.005 121.127 19.5783C121.421 19.1516 121.874 18.9383 122.487 18.9383H125.087C125.754 18.9383 126.301 18.9916 126.727 19.0983C127.181 19.1783 127.541 19.3516 127.807 19.6183C128.074 19.8583 128.247 20.1916 128.327 20.6183C128.434 21.045 128.487 21.5916 128.487 22.2583V27.8983C128.487 29.4716 128.421 30.8316 128.287 31.9783C128.154 33.0983 127.874 34.2183 127.447 35.3383C127.021 36.4316 126.407 37.5916 125.607 38.8183C124.807 40.045 123.741 41.5383 122.407 43.2983C121.954 43.885 121.407 44.1783 120.767 44.1783C120.154 44.1516 119.621 43.9516 119.167 43.5783C118.714 43.205 118.381 42.7516 118.167 42.2183C117.981 41.6583 118.101 41.0983 118.527 40.5383ZM142.887 48.9383C142.887 49.605 142.647 50.0983 142.167 50.4183C141.714 50.7383 141.194 50.8983 140.607 50.8983C140.021 50.8983 139.487 50.7383 139.007 50.4183C138.554 50.0983 138.327 49.605 138.327 48.9383V32.2983H135.527V47.2583C135.527 47.925 135.301 48.4183 134.847 48.7383C134.394 49.0583 133.874 49.2183 133.287 49.2183C132.701 49.2183 132.167 49.0583 131.687 48.7383C131.234 48.4183 131.007 47.925 131.007 47.2583V18.2983C131.007 17.6316 131.234 17.1383 131.687 16.8183C132.167 16.4983 132.701 16.3383 133.287 16.3383C133.874 16.3383 134.394 16.4983 134.847 16.8183C135.301 17.1383 135.527 17.6316 135.527 18.2983V27.9783H138.327V17.8983C138.327 17.2316 138.554 16.7383 139.007 16.4183C139.487 16.0983 140.021 15.9383 140.607 15.9383C141.194 15.9383 141.714 16.0983 142.167 16.4183C142.647 16.7383 142.887 17.2316 142.887 17.8983V48.9383Z" fill="#FFBB09"/>
<g filter="url(#filter0_d_367_4233)">
<g clip-path="url(#clip0_367_4233)">
<rect x="2" y="2" width="50" height="50" rx="10" fill="white"/>
<path d="M40.9469 61.1126C40.9469 68.8154 34.7026 75.0597 26.9998 75.0597C19.297 75.0597 13.0527 68.8154 13.0527 61.1126C13.0527 53.4099 19.297 20 26.9998 20C34.7026 20 40.9469 53.4099 40.9469 61.1126Z" fill="#FFBB09"/>
<path d="M27.8327 45.8033C27.8327 47.8275 26.1917 49.4684 24.1676 49.4684C22.1434 49.4684 20.5024 47.8275 20.5024 45.8033C20.5024 43.7791 22.1434 42.1382 24.1676 42.1382C26.1917 42.1382 27.8327 43.7791 27.8327 45.8033Z" fill="#FAFAFA"/>
<path d="M35.1628 45.8033C35.1628 47.8275 33.5218 49.4684 31.4976 49.4684C29.4734 49.4684 27.8325 47.8275 27.8325 45.8033C27.8325 43.7791 29.4734 42.1382 31.4976 42.1382C33.5218 42.1382 35.1628 43.7791 35.1628 45.8033Z" fill="#FAFAFA"/>
<path d="M27.2179 46.3726C27.2179 47.2209 26.5302 47.9086 25.6819 47.9086C24.8337 47.9086 24.146 47.2209 24.146 46.3726C24.146 45.5243 24.8337 44.8367 25.6819 44.8367C26.5302 44.8367 27.2179 45.5243 27.2179 46.3726Z" fill="#452600"/>
<path d="M34.5919 46.4175C34.5919 47.2658 33.9042 47.9535 33.056 47.9535C32.2077 47.9535 31.52 47.2658 31.52 46.4175C31.52 45.5693 32.2077 44.8816 33.056 44.8816C33.9042 44.8816 34.5919 45.5693 34.5919 46.4175Z" fill="#452600"/>
</g>
</g>
<defs>
<filter id="filter0_d_367_4233" x="0" y="0" width="54" height="54" filterUnits="userSpaceOnUse" color-interpolation-filters="sRGB">
<feFlood flood-opacity="0" result="BackgroundImageFix"/>
<feColorMatrix in="SourceAlpha" type="matrix" values="0 0 0 0 0 0 0 0 0 0 0 0 0 0 0 0 0 0 127 0" result="hardAlpha"/>
<feOffset/>
<feGaussianBlur stdDeviation="1"/>
<feComposite in2="hardAlpha" operator="out"/>
<feColorMatrix type="matrix" values="0 0 0 0 0 0 0 0 0 0 0 0 0 0 0 0 0 0 0.25 0"/>
<feBlend mode="normal" in2="BackgroundImageFix" result="effect1_dropShadow_367_4233"/>
<feBlend mode="normal" in="SourceGraphic" in2="effect1_dropShadow_367_4233" result="shape"/>
</filter>
<clipPath id="clip0_367_4233">
<rect x="2" y="2" width="50" height="50" rx="10" fill="white"/>
</clipPath>
</defs>
</svg>
